<?xml version="1.0" encoding="utf-8"?><svg viewBox="0 0 640 512" xmlns="http://www.w3.org/2000/svg" xmlns:xlink="http://www.w3.org/1999/xlink"><style>:root>svg{display:none}:root>svg:target{display:block}</style><svg aria-hidden="true" data-prefix="fab" data-icon="apple" class="asvg-inline--fa afa-apple afa-w-12" viewBox="0 0 376 512" id="apple-brands" xmlns="http://www.w3.org/2000/svg"><path fill="#fff" d="M314.7 268.7c-.2-36.7 16.4-64.4 50-84.8-18.8-26.9-47.2-41.7-84.7-44.6-35.5-2.8-74.3 20.7-88.5 20.7-15 0-49.4-19.7-76.4-19.7C59.3 141.2 0 184.8 0 273.5c0 26.2 4.8 53.3 14.4 81.2 12.8 36.7 59 126.7 107.2 125.2 25.2-.6 43-17.9 75.8-17.9 31.8 0 48.3 17.9 76.4 17.9 48.6-.7 90.4-82.5 102.6-119.3-65.2-30.7-61.7-90-61.7-91.9zm-56.6-164.2c27.3-32.4 24.8-61.9 24-72.5-24.1 1.4-52 16.4-67.9 34.9-17.5 19.8-27.8 44.3-25.6 71.9 26.1 2 49.9-11.4 69.5-34.3z"/></svg><svg aria-hidden="true" data-prefix="fas" data-icon="cloud-upload-alt" class="bsvg-inline--fa bfa-cloud-upload-alt bfa-w-20" viewBox="0 0 640 512" id="cloud-upload" xmlns="http://www.w3.org/2000/svg"><path fill="#fff" d="M537.6 226.6c4.1-10.7 6.4-22.4 6.4-34.6 0-53-43-96-96-96-19.7 0-38.1 6-53.3 16.2C367 64.2 315.3 32 256 32c-88.4 0-160 71.6-160 160 0 2.7.1 5.4.2 8.1C40.2 219.8 0 273.2 0 336c0 79.5 64.5 144 144 144h368c70.7 0 128-57.3 128-128 0-61.9-44-113.6-102.4-125.4zM393.4 288H328v112c0 8.8-7.2 16-16 16h-48c-8.8 0-16-7.2-16-16V288h-65.4c-14.3 0-21.4-17.2-11.3-27.3l105.4-105.4c6.2-6.2 16.4-6.2 22.6 0l105.4 105.4c10.1 10.1 2.9 27.3-11.3 27.3z"/></svg><svg aria-hidden="true" data-prefix="fas" data-icon="dollar-sign" class="csvg-inline--fa cfa-dollar-sign cfa-w-9" viewBox="0 0 288 512" id="dollar-sign" xmlns="http://www.w3.org/2000/svg"><path fill="#fff" d="M209.2 233.4l-108-31.6C88.7 198.2 80 186.5 80 173.5c0-16.3 13.2-29.5 29.5-29.5h66.3c12.2 0 24.2 3.7 34.2 10.5 6.1 4.1 14.3 3.1 19.5-2l34.8-34c7.1-6.9 6.1-18.4-1.8-24.5C238 74.8 207.4 64.1 176 64V16c0-8.8-7.2-16-16-16h-32c-8.8 0-16 7.2-16 16v48h-2.5C45.8 64-5.4 118.7.5 183.6c4.2 46.1 39.4 83.6 83.8 96.6l102.5 30c12.5 3.7 21.2 15.3 21.2 28.3 0 16.3-13.2 29.5-29.5 29.5h-66.3C100 368 88 364.3 78 357.5c-6.1-4.1-14.3-3.1-19.5 2l-34.8 34c-7.1 6.9-6.1 18.4 1.8 24.5 24.5 19.2 55.1 29.9 86.5 30v48c0 8.8 7.2 16 16 16h32c8.8 0 16-7.2 16-16v-48.2c46.6-.9 90.3-28.6 105.7-72.7 21.5-61.6-14.6-124.8-72.5-141.7z"/></svg><svg aria-hidden="true" data-prefix="fab" data-icon="facebook-square" class="dsvg-inline--fa dfa-facebook-square dfa-w-14" viewBox="0 0 448 512" id="facebook-square-brands" xmlns="http://www.w3.org/2000/svg"><path fill="#676766" d="M448 80v352c0 26.5-21.5 48-48 48h-85.3V302.8h60.6l8.7-67.6h-69.3V192c0-19.6 5.4-32.9 33.5-32.9H384V98.7c-6.2-.8-27.4-2.7-52.2-2.7-51.6 0-87 31.5-87 89.4v49.9H184v67.6h60.9V480H48c-26.5 0-48-21.5-48-48V80c0-26.5 21.5-48 48-48h352c26.5 0 48 21.5 48 48z"/></svg><svg aria-hidden="true" data-prefix="fab" data-icon="google-play" class="esvg-inline--fa efa-google-play efa-w-16" viewBox="0 0 512 512" id="google-play-brands" xmlns="http://www.w3.org/2000/svg"><path fill="#fff" d="M325.3 234.3L104.6 13l280.8 161.2-60.1 60.1zM47 0C34 6.8 25.3 19.2 25.3 35.3v441.3c0 16.1 8.7 28.5 21.7 35.3l256.6-256L47 0zm425.2 225.6l-58.9-34.1-65.7 64.5 65.7 64.5 60.1-34.1c18-14.3 18-46.5-1.2-60.8zM104.6 499l280.8-161.2-60.1-60.1L104.6 499z"/></svg><svg aria-hidden="true" data-prefix="fab" data-icon="google-plus-square" class="fsvg-inline--fa ffa-google-plus-square ffa-w-14" viewBox="0 0 448 512" id="google-plus-square-brands" xmlns="http://www.w3.org/2000/svg"><path fill="#676766" d="M400 32H48C21.5 32 0 53.5 0 80v352c0 26.5 21.5 48 48 48h352c26.5 0 48-21.5 48-48V80c0-26.5-21.5-48-48-48zM164 356c-55.3 0-100-44.7-100-100s44.7-100 100-100c27 0 49.5 9.8 67 26.2l-27.1 26.1c-7.4-7.1-20.3-15.4-39.8-15.4-34.1 0-61.9 28.2-61.9 63.2 0 34.9 27.8 63.2 61.9 63.2 39.6 0 54.4-28.5 56.8-43.1H164v-34.4h94.4c1 5 1.6 10.1 1.6 16.6 0 57.1-38.3 97.6-96 97.6zm220-81.8h-29v29h-29.2v-29h-29V245h29v-29H355v29h29v29.2z"/></svg><svg aria-hidden="true" data-prefix="fab" data-icon="twitter-square" class="gsvg-inline--fa gfa-twitter-square gfa-w-14" viewBox="0 0 448 512" id="twitter-square-brands" xmlns="http://www.w3.org/2000/svg"><path fill="#676766" d="M400 32H48C21.5 32 0 53.5 0 80v352c0 26.5 21.5 48 48 48h352c26.5 0 48-21.5 48-48V80c0-26.5-21.5-48-48-48zm-48.9 158.8c.2 2.8.2 5.7.2 8.5 0 86.7-66 186.6-186.6 186.6-37.2 0-71.7-10.8-100.7-29.4 5.3.6 10.4.8 15.8.8 30.7 0 58.9-10.4 81.4-28-28.8-.6-53-19.5-61.3-45.5 10.1 1.5 19.2 1.5 29.6-1.2-30-6.1-52.5-32.5-52.5-64.4v-.8c8.7 4.9 18.9 7.9 29.6 8.3a65.447 65.447 0 0 1-29.2-54.6c0-12.2 3.2-23.4 8.9-33.1 32.3 39.8 80.8 65.8 135.2 68.6-9.3-44.5 24-80.6 64-80.6 18.9 0 35.9 7.9 47.9 20.7 14.8-2.8 29-8.3 41.6-15.8-4.9 15.2-15.2 28-28.8 36.1 13.2-1.4 26-5.1 37.8-10.2-8.9 13.1-20.1 24.7-32.9 34z"/></svg></svg>